<svg width="20" height="20" viewBox="0 0 20 20" fill="none" xmlns="http://www.w3.org/2000/svg">
<g clip-path="url(#clip0_2_38620)">
<path d="M9.16699 5.33325H3.33366C2.89163 5.33325 2.46771 5.50885 2.15515 5.82141C1.84259 6.13397 1.66699 6.55789 1.66699 6.99992V18.6666C1.66699 19.1086 1.84259 19.5325 2.15515 19.8451C2.46771 20.1577 2.89163 20.3333 3.33366 20.3333H15.0003C15.4424 20.3333 15.8663 20.1577 16.1788 19.8451C16.4914 19.5325 16.667 19.1086 16.667 18.6666V12.8333" stroke="#2A4365" stroke-linecap="round" stroke-linejoin="round"/>
<path d="M15.417 4.08332C15.7485 3.7518 16.1982 3.56555 16.667 3.56555C17.1358 3.56555 17.5855 3.7518 17.917 4.08332C18.2485 4.41484 18.4348 4.86448 18.4348 5.33332C18.4348 5.80216 18.2485 6.2518 17.917 6.58332L10.0003 14.5L6.66699 15.3333L7.50033 12L15.417 4.08332Z" stroke="#2A4365" stroke-linecap="round" stroke-linejoin="round"/>
</g>
<defs>
<clipPath id="clip0_2_38620">
<rect width="20" height="20" fill="white"/>
</clipPath>
</defs>
</svg>
